<mxfile host="65bd71144e">
    <diagram id="data-dictionary-user-portal" name="User Portal Models Data Dictionary">
        <mxGraphModel dx="752" dy="727" grid="1" gridSize="10" guides="1" tooltips="1" connect="1" arrows="1" fold="1" page="1" pageScale="1" pageWidth="1169" pageHeight="827" math="0" shadow="0">
            <root>
                <mxCell id="0"/>
                <mxCell id="1" parent="0"/>
                <mxCell id="notification-title" value="&lt;h2&gt;UserNotification&lt;/h2&gt;" style="text;html=1;strokeColor=none;fillColor=none;align=left;verticalAlign=middle;whiteSpace=wrap;rounded=0;fontStyle=1" parent="1" vertex="1">
                    <mxGeometry x="40" y="20" width="200" height="30" as="geometry"/>
                </mxCell>
                <mxCell id="notification-table" value="&lt;table border=&quot;1&quot; width=&quot;100%&quot; cellpadding=&quot;4&quot; style=&quot;width: 100%; height: 100%; border-collapse: collapse;&quot;&gt;&lt;tr style=&quot;background-color: #A7C942; color: #ffffff; border: 1px solid #98bf21;&quot;&gt;&lt;th align=&quot;left&quot;&gt;Field&lt;/th&gt;&lt;th align=&quot;left&quot;&gt;Data Type&lt;/th&gt;&lt;th align=&quot;left&quot;&gt;Description&lt;/th&gt;&lt;/tr&gt;&lt;tr&gt;&lt;td&gt;id&lt;/td&gt;&lt;td&gt;AutoField&lt;/td&gt;&lt;td&gt;Primary key&lt;/td&gt;&lt;/tr&gt;&lt;tr style=&quot;background-color: #EAF2D3;&quot;&gt;&lt;td&gt;user&lt;/td&gt;&lt;td&gt;ForeignKey&lt;/td&gt;&lt;td&gt;User who receives the notification&lt;/td&gt;&lt;/tr&gt;&lt;tr&gt;&lt;td&gt;type&lt;/td&gt;&lt;td&gt;CharField(20)&lt;/td&gt;&lt;td&gt;Type of notification (VIOLATION, PAYMENT, STATUS, SYSTEM)&lt;/td&gt;&lt;/tr&gt;&lt;tr style=&quot;background-color: #EAF2D3;&quot;&gt;&lt;td&gt;message&lt;/td&gt;&lt;td&gt;TextField&lt;/td&gt;&lt;td&gt;Notification message content&lt;/td&gt;&lt;/tr&gt;&lt;tr&gt;&lt;td&gt;is_read&lt;/td&gt;&lt;td&gt;BooleanField&lt;/td&gt;&lt;td&gt;Whether notification has been read&lt;/td&gt;&lt;/tr&gt;&lt;tr style=&quot;background-color: #EAF2D3;&quot;&gt;&lt;td&gt;created_at&lt;/td&gt;&lt;td&gt;DateTimeField&lt;/td&gt;&lt;td&gt;Timestamp when notification was created&lt;/td&gt;&lt;/tr&gt;&lt;tr&gt;&lt;td&gt;reference_id&lt;/td&gt;&lt;td&gt;IntegerField&lt;/td&gt;&lt;td&gt;Optional ID reference to related object (violation, etc.)&lt;/td&gt;&lt;/tr&gt;&lt;/table&gt;" style="text;html=1;strokeColor=#c0c0c0;fillColor=#ffffff;overflow=fill;rounded=0;" parent="1" vertex="1">
                    <mxGeometry x="40" y="50" width="700" height="200" as="geometry"/>
                </mxCell>
                <mxCell id="report-title" value="&lt;h2&gt;UserReport&lt;/h2&gt;" style="text;html=1;strokeColor=none;fillColor=none;align=left;verticalAlign=middle;whiteSpace=wrap;rounded=0;fontStyle=1" parent="1" vertex="1">
                    <mxGeometry x="40" y="270" width="200" height="30" as="geometry"/>
                </mxCell>
                <mxCell id="report-table" value="&lt;table border=&quot;1&quot; width=&quot;100%&quot; cellpadding=&quot;4&quot; style=&quot;width: 100%; height: 100%; border-collapse: collapse;&quot;&gt;&lt;tr style=&quot;background-color: #A7C942; color: #ffffff; border: 1px solid #98bf21;&quot;&gt;&lt;th align=&quot;left&quot;&gt;Field&lt;/th&gt;&lt;th align=&quot;left&quot;&gt;Data Type&lt;/th&gt;&lt;th align=&quot;left&quot;&gt;Description&lt;/th&gt;&lt;/tr&gt;&lt;tr&gt;&lt;td&gt;id&lt;/td&gt;&lt;td&gt;AutoField&lt;/td&gt;&lt;td&gt;Primary key&lt;/td&gt;&lt;/tr&gt;&lt;tr style=&quot;background-color: #EAF2D3;&quot;&gt;&lt;td&gt;user&lt;/td&gt;&lt;td&gt;ForeignKey&lt;/td&gt;&lt;td&gt;User who submitted the report&lt;/td&gt;&lt;/tr&gt;&lt;tr&gt;&lt;td&gt;type&lt;/td&gt;&lt;td&gt;CharField(20)&lt;/td&gt;&lt;td&gt;Type of report (COMPLAINT, SUGGESTION, INQUIRY, DISPUTE)&lt;/td&gt;&lt;/tr&gt;&lt;tr style=&quot;background-color: #EAF2D3;&quot;&gt;&lt;td&gt;subject&lt;/td&gt;&lt;td&gt;CharField(200)&lt;/td&gt;&lt;td&gt;Report subject/title&lt;/td&gt;&lt;/tr&gt;&lt;tr&gt;&lt;td&gt;description&lt;/td&gt;&lt;td&gt;TextField&lt;/td&gt;&lt;td&gt;Detailed description of the report&lt;/td&gt;&lt;/tr&gt;&lt;tr style=&quot;background-color: #EAF2D3;&quot;&gt;&lt;td&gt;location&lt;/td&gt;&lt;td&gt;CharField(200)&lt;/td&gt;&lt;td&gt;Location related to the report (optional)&lt;/td&gt;&lt;/tr&gt;&lt;tr&gt;&lt;td&gt;incident_date&lt;/td&gt;&lt;td&gt;DateTimeField&lt;/td&gt;&lt;td&gt;Date/time of the incident (optional)&lt;/td&gt;&lt;/tr&gt;&lt;tr style=&quot;background-color: #EAF2D3;&quot;&gt;&lt;td&gt;attachment&lt;/td&gt;&lt;td&gt;FileField&lt;/td&gt;&lt;td&gt;File attachment (optional)&lt;/td&gt;&lt;/tr&gt;&lt;tr&gt;&lt;td&gt;status&lt;/td&gt;&lt;td&gt;CharField(20)&lt;/td&gt;&lt;td&gt;Current status (PENDING, IN_PROGRESS, RESOLVED, CLOSED)&lt;/td&gt;&lt;/tr&gt;&lt;tr style=&quot;background-color: #EAF2D3;&quot;&gt;&lt;td&gt;created_at&lt;/td&gt;&lt;td&gt;DateTimeField&lt;/td&gt;&lt;td&gt;Timestamp when report was created&lt;/td&gt;&lt;/tr&gt;&lt;tr&gt;&lt;td&gt;updated_at&lt;/td&gt;&lt;td&gt;DateTimeField&lt;/td&gt;&lt;td&gt;Last update timestamp&lt;/td&gt;&lt;/tr&gt;&lt;tr style=&quot;background-color: #EAF2D3;&quot;&gt;&lt;td&gt;assigned_to&lt;/td&gt;&lt;td&gt;ForeignKey&lt;/td&gt;&lt;td&gt;Staff user assigned to handle the report&lt;/td&gt;&lt;/tr&gt;&lt;tr&gt;&lt;td&gt;resolution_notes&lt;/td&gt;&lt;td&gt;TextField&lt;/td&gt;&lt;td&gt;Notes on how the report was resolved&lt;/td&gt;&lt;/tr&gt;&lt;tr style=&quot;background-color: #EAF2D3;&quot;&gt;&lt;td&gt;resolved_at&lt;/td&gt;&lt;td&gt;DateTimeField&lt;/td&gt;&lt;td&gt;Timestamp when report was resolved&lt;/td&gt;&lt;/tr&gt;&lt;/table&gt;" style="text;html=1;strokeColor=#c0c0c0;fillColor=#ffffff;overflow=fill;rounded=0;" parent="1" vertex="1">
                    <mxGeometry x="40" y="300" width="700" height="360" as="geometry"/>
                </mxCell>
                <mxCell id="vehicle-reg-title" value="&lt;h2&gt;VehicleRegistration&lt;/h2&gt;" style="text;html=1;strokeColor=none;fillColor=none;align=left;verticalAlign=middle;whiteSpace=wrap;rounded=0;fontStyle=1" parent="1" vertex="1">
                    <mxGeometry x="30" y="670" width="200" height="30" as="geometry"/>
                </mxCell>
                <mxCell id="vehicle-reg-table" value="&lt;table border=&quot;1&quot; width=&quot;100%&quot; cellpadding=&quot;4&quot; style=&quot;width: 100%; height: 100%; border-collapse: collapse;&quot;&gt;&lt;tr style=&quot;background-color: #A7C942; color: #ffffff; border: 1px solid #98bf21;&quot;&gt;&lt;th align=&quot;left&quot;&gt;Field&lt;/th&gt;&lt;th align=&quot;left&quot;&gt;Data Type&lt;/th&gt;&lt;th align=&quot;left&quot;&gt;Description&lt;/th&gt;&lt;/tr&gt;&lt;tr&gt;&lt;td&gt;id&lt;/td&gt;&lt;td&gt;AutoField&lt;/td&gt;&lt;td&gt;Primary key&lt;/td&gt;&lt;/tr&gt;&lt;tr style=&quot;background-color: #EAF2D3;&quot;&gt;&lt;td&gt;user&lt;/td&gt;&lt;td&gt;ForeignKey&lt;/td&gt;&lt;td&gt;User who registered the vehicle&lt;/td&gt;&lt;/tr&gt;&lt;tr&gt;&lt;td&gt;or_number&lt;/td&gt;&lt;td&gt;CharField(50)&lt;/td&gt;&lt;td&gt;Official Receipt (OR) number, must be unique&lt;/td&gt;&lt;/tr&gt;&lt;tr style=&quot;background-color: #EAF2D3;&quot;&gt;&lt;td&gt;cr_number&lt;/td&gt;&lt;td&gt;CharField(50)&lt;/td&gt;&lt;td&gt;Certificate of Registration (CR) number, must be unique&lt;/td&gt;&lt;/tr&gt;&lt;tr&gt;&lt;td&gt;plate_number&lt;/td&gt;&lt;td&gt;CharField(20)&lt;/td&gt;&lt;td&gt;Vehicle plate number, must be unique&lt;/td&gt;&lt;/tr&gt;&lt;tr style=&quot;background-color: #EAF2D3;&quot;&gt;&lt;td&gt;vehicle_type&lt;/td&gt;&lt;td&gt;CharField(100)&lt;/td&gt;&lt;td&gt;Type of vehicle&lt;/td&gt;&lt;/tr&gt;&lt;tr&gt;&lt;td&gt;make&lt;/td&gt;&lt;td&gt;CharField(100)&lt;/td&gt;&lt;td&gt;Vehicle manufacturer&lt;/td&gt;&lt;/tr&gt;&lt;tr style=&quot;background-color: #EAF2D3;&quot;&gt;&lt;td&gt;model&lt;/td&gt;&lt;td&gt;CharField(100)&lt;/td&gt;&lt;td&gt;Vehicle model&lt;/td&gt;&lt;/tr&gt;&lt;tr&gt;&lt;td&gt;year_model&lt;/td&gt;&lt;td&gt;CharField(4)&lt;/td&gt;&lt;td&gt;Vehicle year model&lt;/td&gt;&lt;/tr&gt;&lt;tr style=&quot;background-color: #EAF2D3;&quot;&gt;&lt;td&gt;color&lt;/td&gt;&lt;td&gt;CharField(50)&lt;/td&gt;&lt;td&gt;Vehicle color&lt;/td&gt;&lt;/tr&gt;&lt;tr&gt;&lt;td&gt;classification&lt;/td&gt;&lt;td&gt;CharField(20)&lt;/td&gt;&lt;td&gt;Vehicle classification (Private, Public, Government, Commercial)&lt;/td&gt;&lt;/tr&gt;&lt;tr style=&quot;background-color: #EAF2D3;&quot;&gt;&lt;td&gt;registration_date&lt;/td&gt;&lt;td&gt;DateField&lt;/td&gt;&lt;td&gt;Date of registration&lt;/td&gt;&lt;/tr&gt;&lt;tr&gt;&lt;td&gt;expiry_date&lt;/td&gt;&lt;td&gt;DateField&lt;/td&gt;&lt;td&gt;Registration expiry date&lt;/td&gt;&lt;/tr&gt;&lt;tr style=&quot;background-color: #EAF2D3;&quot;&gt;&lt;td&gt;or_cr_image&lt;/td&gt;&lt;td&gt;ImageField&lt;/td&gt;&lt;td&gt;Image of OR/CR documents&lt;/td&gt;&lt;/tr&gt;&lt;tr&gt;&lt;td&gt;capacity&lt;/td&gt;&lt;td&gt;PositiveIntegerField&lt;/td&gt;&lt;td&gt;Passenger capacity of the vehicle&lt;/td&gt;&lt;/tr&gt;&lt;tr style=&quot;background-color: #EAF2D3;&quot;&gt;&lt;td&gt;is_active&lt;/td&gt;&lt;td&gt;BooleanField&lt;/td&gt;&lt;td&gt;Whether the registration is currently active&lt;/td&gt;&lt;/tr&gt;&lt;tr&gt;&lt;td&gt;created_at&lt;/td&gt;&lt;td&gt;DateTimeField&lt;/td&gt;&lt;td&gt;Record creation timestamp&lt;/td&gt;&lt;/tr&gt;&lt;tr style=&quot;background-color: #EAF2D3;&quot;&gt;&lt;td&gt;updated_at&lt;/td&gt;&lt;td&gt;DateTimeField&lt;/td&gt;&lt;td&gt;Last update timestamp&lt;/td&gt;&lt;/tr&gt;&lt;/table&gt;" style="text;html=1;strokeColor=#c0c0c0;fillColor=#ffffff;overflow=fill;rounded=0;" parent="1" vertex="1">
                    <mxGeometry x="30" y="700" width="700" height="460" as="geometry"/>
                </mxCell>
                <mxCell id="driver-app-title" value="&lt;h2&gt;DriverApplication&lt;/h2&gt;" style="text;html=1;strokeColor=none;fillColor=none;align=left;verticalAlign=middle;whiteSpace=wrap;rounded=0;fontStyle=1" parent="1" vertex="1">
                    <mxGeometry x="30" y="1170" width="200" height="30" as="geometry"/>
                </mxCell>
                <mxCell id="driver-app-table" value="&lt;table border=&quot;1&quot; width=&quot;100%&quot; cellpadding=&quot;4&quot; style=&quot;width: 100%; height: 100%; border-collapse: collapse;&quot;&gt;&lt;tr style=&quot;background-color: #A7C942; color: #ffffff; border: 1px solid #98bf21;&quot;&gt;&lt;th align=&quot;left&quot;&gt;Field&lt;/th&gt;&lt;th align=&quot;left&quot;&gt;Data Type&lt;/th&gt;&lt;th align=&quot;left&quot;&gt;Description&lt;/th&gt;&lt;/tr&gt;&lt;tr&gt;&lt;td&gt;id&lt;/td&gt;&lt;td&gt;AutoField&lt;/td&gt;&lt;td&gt;Primary key&lt;/td&gt;&lt;/tr&gt;&lt;tr style=&quot;background-color: #EAF2D3;&quot;&gt;&lt;td&gt;user&lt;/td&gt;&lt;td&gt;ForeignKey&lt;/td&gt;&lt;td&gt;User applying to be a driver&lt;/td&gt;&lt;/tr&gt;&lt;tr&gt;&lt;td&gt;status&lt;/td&gt;&lt;td&gt;CharField(20)&lt;/td&gt;&lt;td&gt;Application status (PENDING, APPROVED, REJECTED)&lt;/td&gt;&lt;/tr&gt;&lt;tr style=&quot;background-color: #EAF2D3;&quot;&gt;&lt;td&gt;cttmo_seminar_certificate&lt;/td&gt;&lt;td&gt;FileField&lt;/td&gt;&lt;td&gt;CTTMO seminar certificate document&lt;/td&gt;&lt;/tr&gt;&lt;tr&gt;&lt;td&gt;xray_results&lt;/td&gt;&lt;td&gt;FileField&lt;/td&gt;&lt;td&gt;X-ray results document&lt;/td&gt;&lt;/tr&gt;&lt;tr style=&quot;background-color: #EAF2D3;&quot;&gt;&lt;td&gt;medical_certificate&lt;/td&gt;&lt;td&gt;FileField&lt;/td&gt;&lt;td&gt;Medical certificate document&lt;/td&gt;&lt;/tr&gt;&lt;tr&gt;&lt;td&gt;police_clearance&lt;/td&gt;&lt;td&gt;FileField&lt;/td&gt;&lt;td&gt;Police clearance document&lt;/td&gt;&lt;/tr&gt;&lt;tr style=&quot;background-color: #EAF2D3;&quot;&gt;&lt;td&gt;mayors_permit&lt;/td&gt;&lt;td&gt;FileField&lt;/td&gt;&lt;td&gt;Mayor&#39;s permit document&lt;/td&gt;&lt;/tr&gt;&lt;tr&gt;&lt;td&gt;other_documents&lt;/td&gt;&lt;td&gt;FileField&lt;/td&gt;&lt;td&gt;Additional supporting documents (optional)&lt;/td&gt;&lt;/tr&gt;&lt;tr style=&quot;background-color: #EAF2D3;&quot;&gt;&lt;td&gt;submitted_at&lt;/td&gt;&lt;td&gt;DateTimeField&lt;/td&gt;&lt;td&gt;Application submission timestamp&lt;/td&gt;&lt;/tr&gt;&lt;tr&gt;&lt;td&gt;processed_at&lt;/td&gt;&lt;td&gt;DateTimeField&lt;/td&gt;&lt;td&gt;Application processing timestamp (optional)&lt;/td&gt;&lt;/tr&gt;&lt;tr style=&quot;background-color: #EAF2D3;&quot;&gt;&lt;td&gt;processed_by&lt;/td&gt;&lt;td&gt;ForeignKey&lt;/td&gt;&lt;td&gt;User who processed the application&lt;/td&gt;&lt;/tr&gt;&lt;tr&gt;&lt;td&gt;notes&lt;/td&gt;&lt;td&gt;TextField&lt;/td&gt;&lt;td&gt;Notes about the application (optional)&lt;/td&gt;&lt;/tr&gt;&lt;/table&gt;" style="text;html=1;strokeColor=#c0c0c0;fillColor=#ffffff;overflow=fill;rounded=0;" parent="1" vertex="1">
                    <mxGeometry x="30" y="1200" width="700" height="350" as="geometry"/>
                </mxCell>
                <mxCell id="operator-app-title" value="&lt;h2&gt;OperatorApplication&lt;/h2&gt;" style="text;html=1;strokeColor=none;fillColor=none;align=left;verticalAlign=middle;whiteSpace=wrap;rounded=0;fontStyle=1" vertex="1" parent="1">
                    <mxGeometry x="30" y="1560" width="250" height="30" as="geometry"/>
                </mxCell>
                <mxCell id="operator-app-table" value="&lt;table border=&quot;1&quot; width=&quot;100%&quot; cellpadding=&quot;4&quot; style=&quot;width: 100%; height: 100%; border-collapse: collapse;&quot;&gt;&lt;tr style=&quot;background-color: #A7C942; color: #ffffff; border: 1px solid #98bf21;&quot;&gt;&lt;th align=&quot;left&quot;&gt;Field&lt;/th&gt;&lt;th align=&quot;left&quot;&gt;Data Type&lt;/th&gt;&lt;th align=&quot;left&quot;&gt;Description&lt;/th&gt;&lt;/tr&gt;&lt;tr&gt;&lt;td&gt;id&lt;/td&gt;&lt;td&gt;AutoField&lt;/td&gt;&lt;td&gt;Primary key&lt;/td&gt;&lt;/tr&gt;&lt;tr style=&quot;background-color: #EAF2D3;&quot;&gt;&lt;td&gt;user&lt;/td&gt;&lt;td&gt;ForeignKey&lt;/td&gt;&lt;td&gt;User applying to be an operator&lt;/td&gt;&lt;/tr&gt;&lt;tr&gt;&lt;td&gt;business_permit&lt;/td&gt;&lt;td&gt;FileField&lt;/td&gt;&lt;td&gt;Business permit document&lt;/td&gt;&lt;/tr&gt;&lt;tr style=&quot;background-color: #EAF2D3;&quot;&gt;&lt;td&gt;police_clearance&lt;/td&gt;&lt;td&gt;FileField&lt;/td&gt;&lt;td&gt;Police clearance certificate (optional)&lt;/td&gt;&lt;/tr&gt;&lt;tr&gt;&lt;td&gt;barangay_certificate&lt;/td&gt;&lt;td&gt;FileField&lt;/td&gt;&lt;td&gt;Barangay certificate (optional)&lt;/td&gt;&lt;/tr&gt;&lt;tr style=&quot;background-color: #EAF2D3;&quot;&gt;&lt;td&gt;cedula&lt;/td&gt;&lt;td&gt;FileField&lt;/td&gt;&lt;td&gt;Community Tax Certificate/Cedula (optional)&lt;/td&gt;&lt;/tr&gt;&lt;tr&gt;&lt;td&gt;cenro_tickets&lt;/td&gt;&lt;td&gt;FileField&lt;/td&gt;&lt;td&gt;CENRO permits/tickets (optional)&lt;/td&gt;&lt;/tr&gt;&lt;tr style=&quot;background-color: #EAF2D3;&quot;&gt;&lt;td&gt;mayors_permit&lt;/td&gt;&lt;td&gt;FileField&lt;/td&gt;&lt;td&gt;Mayor&#39;s permit document (optional)&lt;/td&gt;&lt;/tr&gt;&lt;tr&gt;&lt;td&gt;other_documents&lt;/td&gt;&lt;td&gt;FileField&lt;/td&gt;&lt;td&gt;Additional supporting documents (optional)&lt;/td&gt;&lt;/tr&gt;&lt;tr style=&quot;background-color: #EAF2D3;&quot;&gt;&lt;td&gt;status&lt;/td&gt;&lt;td&gt;CharField(20)&lt;/td&gt;&lt;td&gt;Application status (PENDING, APPROVED, REJECTED)&lt;/td&gt;&lt;/tr&gt;&lt;tr&gt;&lt;td&gt;notes&lt;/td&gt;&lt;td&gt;TextField&lt;/td&gt;&lt;td&gt;Notes about the application (optional)&lt;/td&gt;&lt;/tr&gt;&lt;tr style=&quot;background-color: #EAF2D3;&quot;&gt;&lt;td&gt;submitted_at&lt;/td&gt;&lt;td&gt;DateTimeField&lt;/td&gt;&lt;td&gt;Application submission timestamp&lt;/td&gt;&lt;/tr&gt;&lt;tr&gt;&lt;td&gt;processed_at&lt;/td&gt;&lt;td&gt;DateTimeField&lt;/td&gt;&lt;td&gt;Application processing timestamp (optional)&lt;/td&gt;&lt;/tr&gt;&lt;tr style=&quot;background-color: #EAF2D3;&quot;&gt;&lt;td&gt;processed_by&lt;/td&gt;&lt;td&gt;ForeignKey&lt;/td&gt;&lt;td&gt;User who processed the application&lt;/td&gt;&lt;/tr&gt;&lt;tr&gt;&lt;td&gt;extra_data&lt;/td&gt;&lt;td&gt;TextField&lt;/td&gt;&lt;td&gt;JSON-encoded additional data like number of units (optional)&lt;/td&gt;&lt;/tr&gt;&lt;/table&gt;" style="text;html=1;strokeColor=#c0c0c0;fillColor=#ffffff;overflow=fill;rounded=0;" vertex="1" parent="1">
                    <mxGeometry x="30" y="1590" width="700" height="390" as="geometry"/>
                </mxCell>
            </root>
        </mxGraphModel>
    </diagram>
</mxfile>